# Blender v2.78 (sub 0) OBJ File: ''
# www.blender.org
mtllib rock.mtl
o Cube_Cube.001
v -1.330629 -1.000000 1.000000
v -0.652707 0.127997 0.797249
v -1.000000 -1.000000 -1.498791
v -1.000000 0.127997 -0.809874
v 1.000000 -1.000000 1.797121
v 0.686984 0.127997 0.836599
v 1.150934 -1.108304 -1.724075
v 0.691224 0.127997 -0.519118
v -1.564224 -1.000000 -0.500000
v -1.502912 -1.000000 0.000000
v -1.535485 -1.000000 0.500000
v -0.895773 0.127997 0.500000
v -0.956678 0.127997 0.000000
v -1.039869 0.127997 -0.500000
v 1.564562 -1.000000 0.500000
v 1.771679 -1.000000 0.000000
v 1.788407 -1.000000 -0.500000
v 0.765600 0.127997 -0.500000
v 0.821784 0.127997 0.000000
v 0.713976 0.127997 0.500000
v 0.743828 -1.087805 -1.930394
v 0.313641 -1.066145 -1.936504
v -0.116546 -1.044484 -1.851780
v -0.546733 -1.022823 -1.779404
v -0.578539 0.127997 -0.682591
v -0.178539 0.127997 -0.989470
v 0.215666 0.122810 -0.867293
v 0.621461 0.127997 -0.606347
v -0.578539 -1.000000 1.546101
v -0.178539 -1.000000 1.702914
v 0.221461 -1.000000 1.860235
v 0.621461 -1.000000 1.963988
v 0.510556 0.127997 0.856323
v 0.221461 0.127997 0.894120
v -0.178539 0.127997 1.041847
v -0.578539 0.127997 0.749947
v -0.578539 0.201651 -0.500000
v -0.178539 0.189460 -0.500000
v 0.221461 0.198959 -0.500000
v 0.621461 0.198770 -0.500000
v -0.578539 0.199063 0.000000
v -0.178539 0.334541 0.000000
v 0.221461 0.238248 0.000000
v 0.621461 0.164029 0.000000
v -0.578539 0.207244 0.500000
v -0.178539 0.254436 0.500000
v 0.221461 0.204862 0.500000
v 0.621461 0.179574 0.500000
v 1.260646 -1.000000 -0.500000
v 0.702965 -1.000000 -0.500000
v 0.145284 -1.000000 -0.500000
v -0.412398 -1.000000 -0.500000
v 1.247084 -1.000000 0.000000
v 0.692749 -1.000000 0.000000
v 0.138413 -1.000000 0.000000
v -0.415923 -1.000000 0.000000
v 1.079168 -1.000000 0.500000
v 0.566256 -1.000000 0.500000
v 0.053344 -1.000000 0.500000
v -0.459569 -1.000000 0.500000
vn -0.8599 0.3211 -0.3969
vn 0.3943 0.7035 -0.5913
vn 0.7956 0.5330 0.2881
vn -0.4558 0.4713 0.7551
vn 0.0000 -1.0000 0.0000
vn -0.1689 0.9620 0.2143
vn -0.0603 0.9865 -0.1524
vn -0.1699 0.9853 0.0167
vn -0.2113 0.9774 0.0049
vn -0.0421 -0.9949 0.0918
vn 0.6516 0.6265 -0.4277
vn 0.7525 0.6580 -0.0297
vn 0.7589 0.6057 0.2390
vn -0.7629 0.4841 0.4286
vn -0.8849 0.4652 0.0251
vn -0.8958 0.4251 0.1295
vn -0.0129 -0.9999 0.0076
vn -0.0198 -0.9994 0.0285
vn -0.0181 -0.9989 0.0439
vn -0.0223 -0.9979 0.0606
vn 0.2866 0.9579 0.0160
vn 0.1234 0.9922 0.0177
vn 0.1783 0.9777 0.1110
vn -0.2221 0.9725 0.0699
vn 0.2961 0.9550 0.0165
vn 0.0926 0.9957 -0.0045
vn 0.1061 0.9779 -0.1803
vn -0.1508 0.9787 -0.1395
vn 0.4630 0.6259 -0.6276
vn 0.0900 0.9509 -0.2961
vn 0.0191 0.9871 -0.1587
vn -0.0606 0.9786 -0.1967
vn 0.1950 0.9745 0.1113
vn 0.0457 0.9835 0.1751
vn 0.0993 0.9724 0.2112
vn -0.1472 0.9573 0.2487
vn 0.2335 0.6806 0.6945
vn -0.0705 0.6732 0.7361
vn -0.0097 0.5850 0.8110
vn -0.4262 0.4908 0.7599
vn -0.1212 0.6112 -0.7821
vn -0.3182 0.6036 -0.7310
vn 0.0557 0.6344 -0.7710
vn 0.2307 0.6969 -0.6790
usemtl Material.001
s off
f 9//1 14//1 4//1 3//1
f 21//2 28//2 8//2 7//2
f 15//3 20//3 6//3 5//3
f 29//4 36//4 2//4 1//4
f 57//5 15//5 5//5 32//5
f 45//6 12//6 2//6 36//6
f 25//7 4//7 14//7 37//7
f 37//8 14//8 13//8 41//8
f 41//9 13//9 12//9 45//9
f 21//10 7//10 17//10 49//10
f 49//5 17//5 16//5 53//5
f 53//5 16//5 15//5 57//5
f 7//11 8//11 18//11 17//11
f 17//12 18//12 19//12 16//12
f 16//13 19//13 20//13 15//13
f 1//14 2//14 12//14 11//14
f 11//15 12//15 13//15 10//15
f 10//16 13//16 14//16 9//16
f 10//5 56//5 60//5 11//5
f 56//5 55//5 59//5 60//5
f 55//5 54//5 58//5 59//5
f 54//5 53//5 57//5 58//5
f 9//5 52//5 56//5 10//5
f 52//5 51//5 55//5 56//5
f 51//5 50//5 54//5 55//5
f 50//5 49//5 53//5 54//5
f 3//17 24//17 52//17 9//17
f 24//18 23//18 51//18 52//18
f 23//19 22//19 50//19 51//19
f 22//20 21//20 49//20 50//20
f 19//21 44//21 48//21 20//21
f 44//22 43//22 47//22 48//22
f 43//23 42//23 46//23 47//23
f 42//24 41//24 45//24 46//24
f 18//25 40//25 44//25 19//25
f 40//26 39//26 43//26 44//26
f 39//27 38//27 42//27 43//27
f 38//28 37//28 41//28 42//28
f 8//29 28//29 40//29 18//29
f 28//30 27//30 39//30 40//30
f 27//31 26//31 38//31 39//31
f 26//32 25//32 37//32 38//32
f 20//33 48//33 33//33 6//33
f 48//34 47//34 34//34 33//34
f 47//35 46//35 35//35 34//35
f 46//36 45//36 36//36 35//36
f 11//5 60//5 29//5 1//5
f 60//5 59//5 30//5 29//5
f 59//5 58//5 31//5 30//5
f 58//5 57//5 32//5 31//5
f 5//37 6//37 33//37 32//37
f 32//38 33//38 34//38 31//38
f 31//39 34//39 35//39 30//39
f 30//40 35//40 36//40 29//40
f 3//41 4//41 25//41 24//41
f 24//42 25//42 26//42 23//42
f 23//43 26//43 27//43 22//43
f 22//44 27//44 28//44 21//44
