# Blender v2.79 (sub 0) OBJ File: 'House.blend'
# www.blender.org
mtllib House.mtl
o Cube_Cube.001
v -2.000000 -1.000000 1.000000
v -2.000000 1.000000 1.000000
v -2.000000 -1.000000 -1.000000
v -2.000000 1.000000 -1.000000
v 2.000000 -1.000000 1.000000
v 2.000000 1.000000 1.000000
v 2.000000 -1.000000 -1.000000
v 2.000000 1.000000 -1.000000
v -2.400000 1.000000 1.200000
v -1.000000 2.000000 0.000000
v -2.400000 1.000000 -1.200000
v 2.400000 1.000000 1.200000
v 1.000000 2.000000 0.000000
v 2.400000 1.000000 -1.200000
v 1.984416 1.138705 0.929816
v 1.984416 1.138705 -0.929816
v -1.984416 1.138705 0.929816
v -1.984416 1.138705 -0.929816
v 2.000000 -1.000000 0.333333
v 2.000000 -1.000000 -0.333333
v 2.000000 1.000000 -0.333333
v 2.000000 1.000000 0.333333
v 2.000000 0.000000 -1.000000
v 2.000000 0.000000 1.000000
v 2.000000 0.000000 0.333333
v 2.000000 0.000000 -0.333333
v 2.026139 -0.990000 0.326667
v 2.026139 -0.990000 -0.326667
v 2.026139 -0.010000 0.326667
v 2.026139 -0.010000 -0.326667
v 2.003691 -0.981000 0.294000
v 2.003691 -0.981000 -0.294000
v 2.003691 -0.099000 0.294000
v 2.003691 -0.099000 -0.294000
vt 0.996681 0.227579
vt 0.775443 0.227579
vt 0.775442 0.003363
vt 0.996681 0.003363
vt 0.768805 0.451794
vt 0.547566 0.451794
vt 0.547566 0.003363
vt 0.658186 0.003363
vt 0.768805 0.003363
vt 0.886062 0.309043
vt 0.775442 0.309043
vt 0.775442 0.234305
vt 0.886062 0.234305
vt 0.547566 0.458520
vt 0.658186 0.458520
vt 0.768805 0.458520
vt 0.768805 0.906951
vt 0.547566 0.906951
vt 0.452434 0.548206
vt 0.452434 0.996637
vt 0.378687 0.996637
vt 0.304941 0.996637
vt 0.231195 0.996637
vt 0.231195 0.548206
vt 0.224557 0.548206
vt 0.224558 0.996637
vt 0.003319 0.996637
vt 0.003319 0.548206
vt 0.077065 0.548206
vt 0.150811 0.548206
vt 0.886062 0.383782
vt 0.775442 0.383782
vt 0.886062 0.458520
vt 0.775443 0.458520
vt 0.996681 0.309043
vt 0.996681 0.234305
vt 0.996681 0.458520
vt 0.996681 0.383782
vt 0.275443 0.541480
vt 0.341814 0.463004
vt 0.474558 0.463004
vt 0.540929 0.541480
vt 0.474558 0.081839
vt 0.540929 0.003363
vt 0.341814 0.081839
vt 0.275443 0.003363
vt 0.003319 0.541480
vt 0.003319 0.003363
vt 0.268805 0.003363
vt 0.268805 0.541480
vt 0.408186 0.160314
vt 0.408186 0.384529
vt 0.886062 0.383782
vt 0.996681 0.383782
vt 0.886062 0.309043
vt 0.886062 0.309043
vt 0.886062 0.383782
vt 0.378687 0.996637
vt 0.304941 0.996637
vt 0.996681 0.309043
vt 0.996681 0.383782
vt 0.996681 0.309043
vt 0.378687 0.996637
vt 0.304941 0.996637
vn -1.0000 0.0000 0.0000
vn 0.0000 0.0000 -1.0000
vn 1.0000 0.0000 0.0000
vn 0.0000 0.0000 1.0000
vn 0.0000 -1.0000 0.0000
vn 0.0000 1.0000 0.0000
vn -0.3166 0.9486 0.0000
vn 0.0000 0.8896 -0.4567
vn 0.3166 0.9486 0.0000
vn 0.0000 0.8896 0.4567
vn 0.6585 0.7526 0.0000
vn 0.0000 0.7336 0.6796
vn 0.0000 0.7336 -0.6796
vn -0.6585 0.7526 0.0000
vn 0.2471 0.0000 -0.9690
vn 0.9696 -0.2446 0.0000
vn 0.3573 -0.9340 0.0000
vn 0.3573 0.9340 0.0000
vn 0.2471 0.0000 0.9690
vn 0.8242 0.0000 -0.5664
vn 0.8242 0.0000 0.5664
vn 0.3721 0.9282 0.0000
usemtl HouseHouse
s off
f 1/1/1 2/2/1 4/3/1 3/4/1
f 3/5/2 4/6/2 8/7/2 23/8/2 7/9/2
f 25/10/3 22/11/3 6/12/3 24/13/3
f 5/14/4 24/15/4 6/16/4 2/17/4 1/18/4
f 3/19/5 7/20/5 20/21/5 19/22/5 5/23/5 1/24/5
f 8/25/6 4/26/6 2/27/6 6/28/6 22/29/6 21/30/6
f 26/31/3 21/32/3 22/11/3 25/10/3
f 23/33/3 8/34/3 21/32/3 26/31/3
f 19/35/3 25/10/3 24/13/3 5/36/3
f 7/37/3 23/33/3 26/31/3 20/38/3
usemtl HouseRoof
f 9/39/7 17/40/7 18/41/7 11/42/7
f 11/42/8 18/41/8 16/43/8 14/44/8
f 14/44/9 16/43/9 15/45/9 12/46/9
f 12/46/10 15/45/10 17/40/10 9/39/10
f 11/47/5 14/48/5 12/49/5 9/50/5
f 15/45/11 16/43/11 13/51/11
f 17/40/12 15/45/12 13/51/12 10/52/12
f 16/43/13 18/41/13 10/52/13 13/51/13
f 18/41/14 17/40/14 10/52/14
usemtl HouseDoor
f 20/38/15 26/31/15 30/53/15 28/54/15
f 30/53/16 29/55/16 33/56/16 34/57/16
f 19/22/17 20/21/17 28/58/17 27/59/17
f 26/31/18 25/10/18 29/55/18 30/53/18
f 25/10/19 19/35/19 27/60/19 29/55/19
f 32/61/3 34/57/3 33/56/3 31/62/3
f 29/55/20 27/60/20 31/62/20 33/56/20
f 28/54/21 30/53/21 34/57/21 32/61/21
f 27/59/22 28/58/22 32/63/22 31/64/22
